<?xml version="1.0" encoding="UTF-8" standalone="no"?>
<!-- Created with Inkscape (http://www.inkscape.org/) -->

<svg
   xmlns:dc="http://purl.org/dc/elements/1.1/"
   xmlns:cc="http://creativecommons.org/ns#"
   xmlns:rdf="http://www.w3.org/1999/02/22-rdf-syntax-ns#"
   xmlns:svg="http://www.w3.org/2000/svg"
   xmlns="http://www.w3.org/2000/svg"
   xmlns:xlink="http://www.w3.org/1999/xlink"
   xmlns:sodipodi="http://sodipodi.sourceforge.net/DTD/sodipodi-0.dtd"
   xmlns:inkscape="http://www.inkscape.org/namespaces/inkscape"
   width="269.85617"
   height="897.49347"
   viewBox="0 0 71.399445 237.46181"
   version="1.1"
   id="svg8"
   inkscape:version="0.92.4 (33fec40, 2019-01-16)"
   sodipodi:docname="e2.svg">
  <title
     id="title3817">E2 Top View</title>
  <defs
     id="defs2">
    <linearGradient
       id="linearGradient5522"
       inkscape:collect="always">
      <stop
         id="stop5518"
         offset="0"
         style="stop-color:#646464;stop-opacity:1" />
      <stop
         id="stop5520"
         offset="1"
         style="stop-color:#e1e1e1;stop-opacity:1" />
    </linearGradient>
    <linearGradient
       inkscape:collect="always"
       id="linearGradient5498">
      <stop
         style="stop-color:#9f9e9f;stop-opacity:1;"
         offset="0"
         id="stop5494" />
      <stop
         style="stop-color:#e1e1e1;stop-opacity:1"
         offset="1"
         id="stop5496" />
    </linearGradient>
    <linearGradient
       inkscape:collect="always"
       id="linearGradient5490">
      <stop
         style="stop-color:#7b0019;stop-opacity:1;"
         offset="0"
         id="stop5486" />
      <stop
         style="stop-color:#e2292c;stop-opacity:1"
         offset="1"
         id="stop5488" />
    </linearGradient>
    <linearGradient
       inkscape:collect="always"
       id="linearGradient5253">
      <stop
         style="stop-color:#7d7d7d;stop-opacity:1"
         offset="0"
         id="stop5249" />
      <stop
         style="stop-color:#ffffff;stop-opacity:1"
         offset="1"
         id="stop5251" />
    </linearGradient>
    <linearGradient
       inkscape:collect="always"
       xlink:href="#linearGradient5253"
       id="linearGradient5255"
       x1="54.879097"
       y1="190.21135"
       x2="78.495377"
       y2="174.4294"
       gradientUnits="userSpaceOnUse" />
    <linearGradient
       inkscape:collect="always"
       xlink:href="#linearGradient5490"
       id="linearGradient5492"
       x1="67.107483"
       y1="231.44475"
       x2="109.95441"
       y2="166.74585"
       gradientUnits="userSpaceOnUse" />
    <linearGradient
       inkscape:collect="always"
       xlink:href="#linearGradient5498"
       id="linearGradient5500"
       x1="72.907623"
       y1="227.97238"
       x2="91.269966"
       y2="197.41685"
       gradientUnits="userSpaceOnUse" />
    <linearGradient
       inkscape:collect="always"
       xlink:href="#linearGradient5498"
       id="linearGradient5508"
       x1="48.788181"
       y1="101.83484"
       x2="73.954117"
       y2="135.28214"
       gradientUnits="userSpaceOnUse" />
    <linearGradient
       inkscape:collect="always"
       xlink:href="#linearGradient5522"
       id="linearGradient5516"
       x1="49.124077"
       y1="33.818111"
       x2="80.422607"
       y2="107.19864"
       gradientUnits="userSpaceOnUse" />
  </defs>
  <sodipodi:namedview
     id="base"
     pagecolor="#ffffff"
     bordercolor="#666666"
     borderopacity="1.0"
     inkscape:pageopacity="0.0"
     inkscape:pageshadow="2"
     inkscape:zoom="0.90509668"
     inkscape:cx="247.88372"
     inkscape:cy="343.12904"
     inkscape:document-units="mm"
     inkscape:current-layer="layer1"
     showgrid="false"
     inkscape:window-width="1920"
     inkscape:window-height="1007"
     inkscape:window-x="0"
     inkscape:window-y="0"
     inkscape:window-maximized="1"
     fit-margin-top="0"
     fit-margin-left="0"
     fit-margin-right="0"
     fit-margin-bottom="0"
     units="px" />
  <metadata
     id="metadata5">
    <rdf:RDF>
      <cc:Work
         rdf:about="">
        <dc:format>image/svg+xml</dc:format>
        <dc:type
           rdf:resource="http://purl.org/dc/dcmitype/StillImage" />
        <dc:title>E2 Top View</dc:title>
        <cc:license
           rdf:resource="http://creativecommons.org/licenses/by-nc-nd/4.0/" />
        <dc:creator>
          <cc:Agent>
            <dc:title>Brenden Davidson</dc:title>
          </cc:Agent>
        </dc:creator>
      </cc:Work>
      <cc:License
         rdf:about="http://creativecommons.org/licenses/by-nc-nd/4.0/">
        <cc:permits
           rdf:resource="http://creativecommons.org/ns#Reproduction" />
        <cc:permits
           rdf:resource="http://creativecommons.org/ns#Distribution" />
        <cc:requires
           rdf:resource="http://creativecommons.org/ns#Notice" />
        <cc:requires
           rdf:resource="http://creativecommons.org/ns#Attribution" />
        <cc:prohibits
           rdf:resource="http://creativecommons.org/ns#CommercialUse" />
      </cc:License>
    </rdf:RDF>
  </metadata>
  <g
     inkscape:groupmode="layer"
     id="layer2"
     inkscape:label="Car"
     transform="translate(-32.380912,-31.56795)">
    <path
       id="path1480"
       style="fill:url(#linearGradient5492);fill-opacity:1;stroke:none;stroke-width:0.27251172px;stroke-linecap:butt;stroke-linejoin:miter;stroke-opacity:1"
       d="M 68.067073,169.05506 H 32.380915 v 62.36607 c 0.465523,18.54689 5.613552,28.72619 5.613552,28.72619 2.288314,4.46872 4.029422,8.39266 7.417911,8.88244 h 22.808621 m -0.153926,-99.9747 h 35.686167 v 62.36607 c -0.46552,18.54689 -5.613556,28.72619 -5.613556,28.72619 -2.288314,4.46872 -4.029422,8.39266 -7.417911,8.88244 H 68.220999"
       inkscape:connector-curvature="0" />
    <rect
       style="fill:url(#linearGradient5255);fill-opacity:1;fill-rule:nonzero;stroke:none;stroke-width:0.51222897;stroke-linecap:round;stroke-linejoin:bevel;stroke-miterlimit:4;stroke-dasharray:none;stroke-dashoffset:0;stroke-opacity:0.72477064"
       id="rect5232"
       width="63.610146"
       height="22.717911"
       x="36.482288"
       y="170.18062" />
    <path
       inkscape:connector-curvature="0"
       d="M 67.785461,193.7638 H 34.348924 l 1.089635,43.59968 c 0.382835,12.96601 5.044944,22.4594 5.044944,22.4594 1.503107,3.23367 1.150381,3.02872 8.671314,3.00571 h 18.75723 m -0.12659,-69.06479 h 34.060923 l -0.64275,43.59968 c -0.38284,12.96601 -5.473453,22.04598 -5.473453,22.04598 -1.313732,4.07411 -2.74,3.36906 -9.314069,3.41913 H 67.912047"
       style="fill:url(#linearGradient5500);fill-opacity:1;stroke:none;stroke-width:0.20662718px;stroke-linecap:butt;stroke-linejoin:miter;stroke-opacity:1"
       id="path5276"
       sodipodi:nodetypes="cccccccccccc" />
    <g
       transform="matrix(0.01672366,0,0,0.01672366,66.506821,263.55199)"
       inkscape:label="Layer 2"
       id="layer3">
      <g
         style="fill:none;fill-opacity:1;stroke:#ffcc33;stroke-opacity:1"
         id="g836">
        <path
           d="m 37.005651,250.60896 -61.909862,-107.42003 54.232562,21.7708 5.21176,9.02702 -7.63825,4.40995 -3.34087,-5.78655 -7.79836,18.83599 19.91367,2.03278 -3.44904,-5.9739 7.36509,-4.25224 5.24442,9.08361 z m 134.932339,-0.0203 61.90986,-107.42002 -54.23256,21.77079 -5.21176,9.02703 7.63825,4.40994 3.34087,-5.78655 7.79836,18.836 -19.91367,2.03278 3.44904,-5.9739 -7.36509,-4.25224 -5.24442,9.08361 z M 36.864686,28.702579 l -61.90986,107.420031 54.23256,-21.7708 5.21176,-9.02703 -7.63825,-4.40994 -3.34087,5.78655 -7.79836,-18.835987 19.91367,-2.03278 -3.44904,5.9739 7.36509,4.25224 5.24442,-9.08361 z m 134.722344,0.359715 61.90986,107.420026 -54.23256,-21.7708 -5.21176,-9.02703 7.63825,-4.40994 3.34087,5.78655 7.79836,-18.835994 -19.91367,-2.03278 3.44904,5.9739 -7.36509,4.25224 -5.24442,-9.08361 z m -64.39097,240.291596 107.32555,-62.07353 -57.85218,-8.26223 -9.02703,5.21176 4.40994,7.63825 5.78656,-3.34087 -2.66445,20.21165 -18.26212,-8.1964 5.97391,-3.44903 -4.25223,-7.36508 -9.0836,5.24442 z m -5.66964,0 -107.325547,-62.07353 57.852175,-8.26223 9.027031,5.21176 -4.40994,7.63825 -5.786562,-3.34087 2.664452,20.21165 18.262118,-8.1964 -5.97391,-3.44903 4.25223,-7.36508 9.083606,5.24442 z M 101.28085,10.397526 -6.0446912,72.471062 l 57.8521742,8.26223 9.02703,-5.21176 -4.40994,-7.63825 -5.78656,3.34087 2.66445,-20.21165 18.26212,8.1964 -5.97391,3.44903 4.25223,7.36508 9.0836,-5.24442 z m 6.04065,-0.250562 107.32554,62.073538 -57.85217,8.262227 -9.02703,-5.21176 4.40994,-7.638249 5.78656,3.34087 -2.66445,-20.211649 -18.26212,8.196399 5.97391,3.449035 -4.25223,7.365079 -9.0836,-5.24442 z M -9.4393046,77.321313 -9.3448046,201.30473 26.73656,155.33438 v -10.42352 h -8.81989 v 6.68174 L 1.7450854,139.17932 17.97443,127.46205 v 6.89807 H 26.4789 V 123.87128 Z M 218.08107,77.564881 217.98657,201.5483 181.9052,155.57795 v -10.42352 h 8.81989 v 6.68174 l 16.17159,-12.41328 -16.22935,-11.71727 v 6.89807 h -8.50447 V 124.11485 Z M 42.08191,253.60278 166.06532,253.50828 120.09498,217.4269 h -10.42352 v 8.81989 h 6.68174 l -12.41329,16.17159 -11.717263,-16.22935 h 6.89807 v -8.50446 H 88.631877 Z M 41.990958,26.027839 165.97437,26.122329 120.00402,62.203714 H 109.5805 v -8.819893 h 6.68174 L 103.84896,37.212238 92.131696,53.441591 h 6.898066 v 8.504465 h -10.48884 z"
           style="fill:none;fill-opacity:1;stroke:#ffcc33;stroke-width:1.85208333;stroke-linecap:butt;stroke-linejoin:miter;stroke-miterlimit:4;stroke-dasharray:none;stroke-opacity:1"
           id="path7789-0-4"
           inkscape:connector-curvature="0" />
      </g>
    </g>
    <rect
       style="opacity:1;fill:#ffcc33;fill-opacity:1;fill-rule:nonzero;stroke:none;stroke-width:0.54501826;stroke-linecap:round;stroke-linejoin:bevel;stroke-miterlimit:4;stroke-dasharray:none;stroke-dashoffset:0;stroke-opacity:1"
       id="rect5480"
       width="71.394829"
       height="80.483528"
       x="32.380913"
       y="88.571533" />
    <rect
       style="opacity:1;fill:url(#linearGradient5508);fill-opacity:1;fill-rule:nonzero;stroke:none;stroke-width:0.50323945;stroke-linecap:round;stroke-linejoin:bevel;stroke-miterlimit:4;stroke-dasharray:none;stroke-dashoffset:0;stroke-opacity:1"
       id="rect5482"
       width="69.584373"
       height="80.270088"
       x="33.285252"
       y="88.984947" />
    <path
       style="fill:url(#linearGradient5516);fill-opacity:1;stroke:none;stroke-width:0.26458332px;stroke-linecap:butt;stroke-linejoin:miter;stroke-opacity:1"
       d="M 32.380912,88.571532 C 32.86552,66.871854 39.037318,46.473267 40.970238,31.56795 h 54.917007 c 1.197681,14.996134 8.096765,34.669135 7.888495,57.003582 z"
       id="path5484"
       inkscape:connector-curvature="0"
       sodipodi:nodetypes="ccccc" />
  </g>
  <g
     inkscape:label="Cells"
     inkscape:groupmode="layer"
     id="layer1"
     transform="translate(-32.380912,-31.56795)" />
</svg>
