<?xml version="1.0" encoding="UTF-8" standalone="no"?>
<!-- Created with Inkscape (http://www.inkscape.org/) -->

<svg
   xmlns:dc="http://purl.org/dc/elements/1.1/"
   xmlns:cc="http://creativecommons.org/ns#"
   xmlns:rdf="http://www.w3.org/1999/02/22-rdf-syntax-ns#"
   xmlns:svg="http://www.w3.org/2000/svg"
   xmlns="http://www.w3.org/2000/svg"
   xmlns:sodipodi="http://sodipodi.sourceforge.net/DTD/sodipodi-0.dtd"
   xmlns:inkscape="http://www.inkscape.org/namespaces/inkscape"
   width="264.58334mm"
   height="264.58334mm"
   viewBox="0 0 264.58334 264.58334"
   version="1.1"
   id="svg7232"
   inkscape:version="0.92.1 r15371"
   sodipodi:docname="svp_logo.svg">
  <defs
     id="defs7226" />
  <sodipodi:namedview
     id="base"
     pagecolor="#ffffff"
     bordercolor="#666666"
     borderopacity="1.0"
     inkscape:pageopacity="0.0"
     inkscape:pageshadow="2"
     inkscape:zoom="0.49497475"
     inkscape:cx="434.55549"
     inkscape:cy="299.36609"
     inkscape:document-units="mm"
     inkscape:current-layer="layer3"
     showgrid="false"
     inkscape:window-width="1920"
     inkscape:window-height="1017"
     inkscape:window-x="-8"
     inkscape:window-y="-8"
     inkscape:window-maximized="1"
     fit-margin-top="0"
     fit-margin-left="0"
     fit-margin-right="0"
     fit-margin-bottom="0" />
  <metadata
     id="metadata7229">
    <rdf:RDF>
      <cc:Work
         rdf:about="">
        <dc:format>image/svg+xml</dc:format>
        <dc:type
           rdf:resource="http://purl.org/dc/dcmitype/StillImage" />
        <dc:title></dc:title>
      </cc:Work>
    </rdf:RDF>
  </metadata>
  <g
     inkscape:groupmode="layer"
     id="layer3"
     inkscape:label="Layer 2"
     transform="translate(27.970245,-7.4702344)">
    <path
       style="fill:none;fill-opacity:1;stroke:#7b0019;stroke-width:1.85208333;stroke-linecap:butt;stroke-linejoin:miter;stroke-miterlimit:4;stroke-dasharray:none;stroke-opacity:1"
       d="m 41.990958,26.027839 123.983412,0.09449 -45.97035,36.081385 H 109.5805 v -8.819893 h 6.68174 L 103.84896,37.212238 92.131696,53.441591 h 6.898066 v 8.504465 h -10.48884 z"
       id="path7789"
       inkscape:connector-curvature="0"
       sodipodi:nodetypes="cccccccccccc" />
    <path
       style="fill:none;fill-opacity:1;stroke:#7b0019;stroke-width:1.85208333;stroke-linecap:butt;stroke-linejoin:miter;stroke-miterlimit:4;stroke-dasharray:none;stroke-opacity:1"
       d="m 42.08191,253.60278 123.98341,-0.0945 -45.97034,-36.08138 h -10.42352 v 8.81989 h 6.68174 l -12.41329,16.17159 -11.717263,-16.22935 h 6.89807 v -8.50446 h -10.48884 z"
       id="path7789-1"
       inkscape:connector-curvature="0"
       sodipodi:nodetypes="cccccccccccc" />
    <path
       style="fill:none;fill-opacity:1;stroke:#7b0019;stroke-width:1.85208333;stroke-linecap:butt;stroke-linejoin:miter;stroke-miterlimit:4;stroke-dasharray:none;stroke-opacity:1"
       d="M 218.08107,77.564881 217.98657,201.5483 181.9052,155.57795 v -10.42352 h 8.81989 v 6.68174 l 16.17159,-12.41328 -16.22935,-11.71727 v 6.89807 h -8.50447 v -10.48884 z"
       id="path7789-8"
       inkscape:connector-curvature="0"
       sodipodi:nodetypes="cccccccccccc" />
    <path
       style="fill:none;fill-opacity:1;stroke:#7b0019;stroke-width:1.85208333;stroke-linecap:butt;stroke-linejoin:miter;stroke-miterlimit:4;stroke-dasharray:none;stroke-opacity:1"
       d="m -9.4393046,77.321313 0.0945,123.983417 36.0813646,-45.97035 v -10.42352 h -8.81989 v 6.68174 L 1.7450854,139.17932 17.97443,127.46205 v 6.89807 h 8.50447 v -10.48884 z"
       id="path7789-8-5"
       inkscape:connector-curvature="0"
       sodipodi:nodetypes="cccccccccccc" />
    <path
       style="fill:none;fill-opacity:1;stroke:#7b0019;stroke-width:1.85208333;stroke-linecap:butt;stroke-linejoin:miter;stroke-miterlimit:4;stroke-dasharray:none;stroke-opacity:1"
       d="m 107.3215,10.146964 107.32554,62.073538 -57.85217,8.262227 -9.02703,-5.21176 4.40994,-7.638249 5.78656,3.34087 -2.66445,-20.211649 -18.26212,8.196399 5.97391,3.449035 -4.25223,7.365079 -9.0836,-5.24442 z"
       id="path7789-6"
       inkscape:connector-curvature="0"
       sodipodi:nodetypes="cccccccccccc" />
    <path
       style="fill:none;fill-opacity:1;stroke:#7b0019;stroke-width:1.85208333;stroke-linecap:butt;stroke-linejoin:miter;stroke-miterlimit:4;stroke-dasharray:none;stroke-opacity:1"
       d="m 101.28085,10.397526 -107.3255412,62.073536 57.8521742,8.26223 9.02703,-5.21176 -4.40994,-7.63825 -5.78656,3.34087 2.66445,-20.21165 18.26212,8.1964 -5.97391,3.44903 4.25223,7.36508 9.0836,-5.24442 z"
       id="path7789-6-9"
       inkscape:connector-curvature="0"
       sodipodi:nodetypes="cccccccccccc" />
    <path
       style="fill:none;fill-opacity:1;stroke:#7b0019;stroke-width:1.85208333;stroke-linecap:butt;stroke-linejoin:miter;stroke-miterlimit:4;stroke-dasharray:none;stroke-opacity:1"
       d="m 101.52642,269.35389 -107.325547,-62.07353 57.852175,-8.26223 9.027031,5.21176 -4.40994,7.63825 -5.786562,-3.34087 2.664452,20.21165 18.262118,-8.1964 -5.97391,-3.44903 4.25223,-7.36508 9.083606,5.24442 z"
       id="path7789-6-9-8"
       inkscape:connector-curvature="0"
       sodipodi:nodetypes="cccccccccccc" />
    <path
       style="fill:none;fill-opacity:1;stroke:#7b0019;stroke-width:1.85208333;stroke-linecap:butt;stroke-linejoin:miter;stroke-miterlimit:4;stroke-dasharray:none;stroke-opacity:1"
       d="m 107.19606,269.35389 107.32555,-62.07353 -57.85218,-8.26223 -9.02703,5.21176 4.40994,7.63825 5.78656,-3.34087 -2.66445,20.21165 -18.26212,-8.1964 5.97391,-3.44903 -4.25223,-7.36508 -9.0836,5.24442 z"
       id="path7789-6-9-8-6"
       inkscape:connector-curvature="0"
       sodipodi:nodetypes="cccccccccccc" />
    <path
       style="fill:none;fill-opacity:1;stroke:#7b0019;stroke-width:1.85208333;stroke-linecap:butt;stroke-linejoin:miter;stroke-miterlimit:4;stroke-dasharray:none;stroke-opacity:1"
       d="m 171.58703,29.062294 61.90986,107.420026 -54.23256,-21.7708 -5.21176,-9.02703 7.63825,-4.40994 3.34087,5.78655 7.79836,-18.835994 -19.91367,-2.03278 3.44904,5.9739 -7.36509,4.25224 -5.24442,-9.08361 z"
       id="path7789-0"
       inkscape:connector-curvature="0"
       sodipodi:nodetypes="cccccccccccc" />
    <path
       style="fill:none;fill-opacity:1;stroke:#7b0019;stroke-width:1.85208333;stroke-linecap:butt;stroke-linejoin:miter;stroke-miterlimit:4;stroke-dasharray:none;stroke-opacity:1"
       d="m 36.864686,28.702579 -61.90986,107.420031 54.23256,-21.7708 5.21176,-9.02703 -7.63825,-4.40994 -3.34087,5.78655 -7.79836,-18.835987 19.91367,-2.03278 -3.44904,5.9739 7.36509,4.25224 5.24442,-9.08361 z"
       id="path7789-0-3"
       inkscape:connector-curvature="0"
       sodipodi:nodetypes="cccccccccccc" />
    <path
       style="fill:none;fill-opacity:1;stroke:#7b0019;stroke-width:1.85208333;stroke-linecap:butt;stroke-linejoin:miter;stroke-miterlimit:4;stroke-dasharray:none;stroke-opacity:1"
       d="m 171.93799,250.58869 61.90986,-107.42002 -54.23256,21.77079 -5.21176,9.02703 7.63825,4.40994 3.34087,-5.78655 7.79836,18.836 -19.91367,2.03278 3.44904,-5.9739 -7.36509,-4.25224 -5.24442,9.08361 z"
       id="path7789-0-7"
       inkscape:connector-curvature="0"
       sodipodi:nodetypes="cccccccccccc" />
    <path
       style="fill:none;fill-opacity:1;stroke:#7b0019;stroke-width:1.85208333;stroke-linecap:butt;stroke-linejoin:miter;stroke-miterlimit:4;stroke-dasharray:none;stroke-opacity:1"
       d="m 37.005651,250.60896 -61.909862,-107.42003 54.232562,21.7708 5.21176,9.02702 -7.63825,4.40995 -3.34087,-5.78655 -7.79836,18.83599 19.91367,2.03278 -3.44904,-5.9739 7.36509,-4.25224 5.24442,9.08361 z"
       id="path7789-0-4"
       inkscape:connector-curvature="0"
       sodipodi:nodetypes="cccccccccccc" />
  </g>
</svg>
